<?xml version="1.0"?>
<svg xmlns="http://www.w3.org/2000/svg" xmlns:xlink="http://www.w3.org/1999/xlink" xmlns:svgjs="http://svgjs.com/svgjs" version="1.1" width="512" height="512" x="0" y="0" viewBox="0 0 512 512" style="enable-background:new 0 0 512 512" xml:space="preserve" class=""><g><g xmlns="http://www.w3.org/2000/svg"><path d="m416 8h-320a48.051 48.051 0 0 0 -48 48v440a8 8 0 0 0 8 8h320a8 8 0 0 0 8-8v-248h72a8 8 0 0 0 8-8v-184a48.051 48.051 0 0 0 -48-48zm-48 48v432h-304v-432a32.03 32.03 0 0 1 32-32h284.26a47.8 47.8 0 0 0 -12.26 32zm80 176h-64v-176a32 32 0 0 1 64 0z" fill="#001737" data-original="#000000" style="" class=""/><path d="m336 232h-240a8 8 0 0 0 -8 8v120a8 8 0 0 0 8 8h240a8 8 0 0 0 8-8v-120a8 8 0 0 0 -8-8zm-8 24h-168v-8h168zm-184-8v8h-40v-8zm-40 24h40v80h-40zm56 80v-80h168v80z" fill="#001737" data-original="#000000" style="" class=""/><path d="m336 64h-240a8 8 0 0 0 -8 8v40a8 8 0 0 0 8 8h240a8 8 0 0 0 8-8v-40a8 8 0 0 0 -8-8zm-8 40h-224v-24h224z" fill="#001737" data-original="#000000" style="" class=""/><path d="m128 160h136a8 8 0 0 0 0-16h-136a8 8 0 0 0 0 16z" fill="#001737" data-original="#000000" style="" class=""/><path d="m96 160h8a8 8 0 0 0 0-16h-8a8 8 0 0 0 0 16z" fill="#001737" data-original="#000000" style="" class=""/><path d="m128 184h136a8 8 0 0 0 0-16h-136a8 8 0 0 0 0 16z" fill="#001737" data-original="#000000" style="" class=""/><path d="m96 184h8a8 8 0 0 0 0-16h-8a8 8 0 0 0 0 16z" fill="#001737" data-original="#000000" style="" class=""/><path d="m128 208h136a8 8 0 0 0 0-16h-136a8 8 0 0 0 0 16z" fill="#001737" data-original="#000000" style="" class=""/><path d="m96 208h8a8 8 0 0 0 0-16h-8a8 8 0 0 0 0 16z" fill="#001737" data-original="#000000" style="" class=""/><path d="m336 424h-80a8 8 0 0 0 0 16h80a8 8 0 0 0 0-16z" fill="#001737" data-original="#000000" style="" class=""/><path d="m336 448h-40a8 8 0 0 0 0 16h40a8 8 0 0 0 0-16z" fill="#001737" data-original="#000000" style="" class=""/></g></g></svg>
