<?xml version="1.0"?>
<svg xmlns="http://www.w3.org/2000/svg" xmlns:xlink="http://www.w3.org/1999/xlink" xmlns:svgjs="http://svgjs.com/svgjs" version="1.1" width="512" height="512" x="0" y="0" viewBox="0 0 512 512" style="enable-background:new 0 0 512 512" xml:space="preserve" class=""><g>
<g xmlns="http://www.w3.org/2000/svg">
	<g>
		<path d="M352.399,96.4c-34.986,0-68.75,11.436-96.398,32.418c-27.651-20.983-61.414-32.418-96.4-32.418    C71.597,96.4,0,167.996,0,256s71.597,159.6,159.601,159.6c34.986,0,68.75-11.436,96.4-32.417    c27.648,20.982,61.411,32.417,96.398,32.417C440.403,415.6,512,344.004,512,256S440.403,96.4,352.399,96.4z M256,169.418    c4.943,5.51,9.416,11.439,13.355,17.697h-26.711C246.583,180.858,251.056,174.927,256,169.418z M228.745,217.115h54.51    c2.45,7.783,4.149,15.763,5.084,23.885H223.66C224.595,232.879,226.294,224.899,228.745,217.115z M223.66,271h64.679    c-0.935,8.121-2.634,16.102-5.084,23.885h-54.51C226.294,287.101,224.595,279.121,223.66,271z M256.001,342.584    c-4.944-5.511-9.417-11.441-13.357-17.699h26.712C265.416,331.143,260.944,337.072,256.001,342.584z M352.399,385.6    c-26.596,0-52.322-8.13-73.916-23.144c12.373-13.836,22.35-29.819,29.247-46.977c7.61-18.929,11.47-38.941,11.47-59.479    c0-20.538-3.859-40.55-11.47-59.48c-6.896-17.156-16.874-33.14-29.247-46.976c21.594-15.014,47.32-23.145,73.916-23.145    C423.862,126.4,482,184.538,482,256S423.862,385.6,352.399,385.6z" fill="#ffffff" data-original="#000000" style="" class=""/>
	</g>
</g>
<g xmlns="http://www.w3.org/2000/svg">
</g>
<g xmlns="http://www.w3.org/2000/svg">
</g>
<g xmlns="http://www.w3.org/2000/svg">
</g>
<g xmlns="http://www.w3.org/2000/svg">
</g>
<g xmlns="http://www.w3.org/2000/svg">
</g>
<g xmlns="http://www.w3.org/2000/svg">
</g>
<g xmlns="http://www.w3.org/2000/svg">
</g>
<g xmlns="http://www.w3.org/2000/svg">
</g>
<g xmlns="http://www.w3.org/2000/svg">
</g>
<g xmlns="http://www.w3.org/2000/svg">
</g>
<g xmlns="http://www.w3.org/2000/svg">
</g>
<g xmlns="http://www.w3.org/2000/svg">
</g>
<g xmlns="http://www.w3.org/2000/svg">
</g>
<g xmlns="http://www.w3.org/2000/svg">
</g>
<g xmlns="http://www.w3.org/2000/svg">
</g>
</g></svg>
