<?xml version="1.0"?>
<svg xmlns="http://www.w3.org/2000/svg" xmlns:xlink="http://www.w3.org/1999/xlink" xmlns:svgjs="http://svgjs.com/svgjs" version="1.1" width="512" height="512" x="0" y="0" viewBox="0 0 512 512" style="enable-background:new 0 0 512 512" xml:space="preserve" class=""><g><g xmlns="http://www.w3.org/2000/svg"><path d="m484.5.008h-31.814c-9.386 0-9.813 15 0 15h31.814c6.893 0 12.5 5.607 12.5 12.5v164.347c0 6.893-5.607 12.5-12.5 12.5h-22.759c-4.143 0-7.5 3.358-7.5 7.5v20.205l-25.508-25.508c-1.407-1.407-3.314-2.197-5.304-2.197h-145.981v-55.518c.013-15.305-12.598-27.723-27.896-27.5v-93.829c0-6.893 5.607-12.5 12.5-12.5h147.948c9.386 0 9.813-15 0-15h-147.948c-15.163 0-27.5 12.336-27.5 27.5v93.829h-207.052c-15.163 0-27.5 12.336-27.5 27.5v164.347c0 15.164 12.337 27.5 27.5 27.5h15.259v30.812c0 6.462 8.045 10.06 12.804 5.303l36.114-36.115h58.977v105.512c0 15.164 12.337 27.5 27.5 27.5h158.271l36.114 36.115c4.759 4.757 12.804 1.159 12.804-5.303v-30.812h15.259c15.163 0 27.5-12.336 27.5-27.5v-164.346c0-15.164-12.337-27.5-27.5-27.5h-123.154v-34.994h142.875l36.114 36.115c4.759 4.757 12.804 1.159 12.804-5.303v-30.812h15.259c15.163 0 27.5-12.336 27.5-27.5v-164.348c0-15.163-12.337-27.5-27.5-27.5zm-333.847 281.842v4.385c-5.139 2.723-9.367 4.665-11.938 5.788-4.907-2.142-15.849-7.275-27.835-15.231-7.817-5.194-16.471 7.07-8.295 12.497 17.49 11.61 32.771 17.607 33.413 17.857 1.811.68 3.623.68 5.435 0 .226-.088 3.738-1.463 9.22-4.103v22.642h-62.083c-1.989 0-3.896.79-5.304 2.197l-25.507 25.508v-20.205c0-4.142-3.357-7.5-7.5-7.5h-22.759c-6.893 0-12.5-5.607-12.5-12.5v-164.348c0-6.893 5.607-12.5 12.5-12.5h222.448c6.893 0 12.5 5.607 12.5 12.5v105.513h-50.32c9.617-13.823 14.484-28.46 14.485-43.68.002-27.944-22.428-50.68-50.002-50.682-14.822-.001-28.519 6.523-37.885 17.579-9.364-11.057-23.061-17.583-37.884-17.585-27.57-.002-50.006 22.731-50.008 50.674-.002 17.964 6.803 35.185 20.225 51.184 6.031 7.191 17.799-2.123 11.492-9.641-11.094-13.224-16.719-27.2-16.717-41.542.002-19.673 15.706-35.677 35.007-35.676 13.209.001 25.156 7.462 31.18 19.472 1.292 2.576 3.969 3.892 6.704 4.138 2.837 0 5.432-1.601 6.703-4.137 17.084-33.238 65.817-21.018 66.185 16.214-.002 15.135-6.251 29.816-18.578 43.681h-14.882c-15.163.001-27.5 12.337-27.5 27.501zm249.949-12.5c6.893 0 12.5 5.607 12.5 12.5v164.347c0 6.893-5.607 12.5-12.5 12.5h-22.759c-4.143 0-7.5 3.358-7.5 7.5v20.205l-25.508-25.508c-1.407-1.407-3.314-2.197-5.304-2.197h-161.378c-6.893 0-12.5-5.607-12.5-12.5v-164.347c0-6.893 5.607-12.5 12.5-12.5z" fill="#001737" data-original="#000000" style="" class=""/><path d="m374.793 33.714c-2.771 0-5.317 1.529-6.62 3.975l-19.644 36.891c-1.58 2.981-3.268 5.537-6.554 6.961-3.241-5.23-9.031-8.722-15.622-8.722h-12.618c-10.128 0-18.368 8.24-18.368 18.369v75.689c0 10.128 8.24 18.369 18.368 18.369h12.618c7.569 0 14.081-4.603 16.891-11.155 3.362 1.181 7.14 1.912 11.786 1.912h63.598c10.475 0 19.659-7.073 22.334-17.2l13.639-51.618c3.491-12.916-7.455-25.939-20.474-25.939h-29.002c-1.761 0-3.193-1.433-3.193-3.193v-17.2c0-14.964-12.175-27.139-27.139-27.139zm-45.071 133.163c0 1.857-1.511 3.369-3.368 3.369h-12.618c-1.857 0-3.368-1.511-3.368-3.369v-75.689c0-1.857 1.511-3.369 3.368-3.369h12.618c1.857 0 3.368 1.511 3.368 3.369zm75.403-70.631h29.002c3.801 0 6.699 3.546 5.929 7.268l-13.596 51.458c-.938 3.551-4.159 6.031-7.832 6.031h-63.598c-4.033 0-6.711-.729-10.309-2.643v-61.884c7.587-2.189 13.943-7.646 17.198-15.127l16.993-31.914c4.671 1.691 8.019 6.171 8.019 11.419v17.2c.001 10.03 8.162 18.192 18.194 18.192z" fill="#001737" data-original="#000000" style="" class=""/><path d="m224.709 392.679c14.659 0 26.585-11.926 26.585-26.585-1.46-35.27-51.716-35.258-53.171 0 0 14.659 11.927 26.585 26.586 26.585zm0-38.171c6.388 0 11.585 5.197 11.585 11.585-.637 15.37-22.537 15.365-23.171 0 0-6.387 5.197-11.585 11.586-11.585z" fill="#001737" data-original="#000000" style="" class=""/><path d="m289.377 392.679c14.659 0 26.586-11.926 26.586-26.585-1.461-35.269-51.716-35.259-53.171 0 0 14.659 11.926 26.585 26.585 26.585zm0-38.171c6.389 0 11.586 5.197 11.586 11.585-.636 15.369-22.537 15.366-23.171 0 0-6.387 5.197-11.585 11.585-11.585z" fill="#001737" data-original="#000000" style="" class=""/><path d="m354.046 392.679c14.659 0 26.585-11.926 26.585-26.585-1.46-35.27-51.716-35.258-53.171 0 0 14.659 11.927 26.585 26.586 26.585zm0-38.171c6.388 0 11.585 5.197 11.585 11.585-.637 15.37-22.537 15.365-23.171 0 0-6.387 5.197-11.585 11.586-11.585z" fill="#001737" data-original="#000000" style="" class=""/></g></g></svg>
